<svg width="9" height="15" viewBox="0 0 9 15" fill="none" xmlns="http://www.w3.org/2000/svg">
<path fill-rule="evenodd" clip-rule="evenodd" d="M8.87756 7.03451V7.0324C8.87756 6.74817 8.75886 6.49209 8.56732 6.30918H8.56866L2.49872 0.278591L2.49603 0.281405C2.31393 0.106932 2.06708 0.00140381 1.79596 0.00140381C1.23618 0.00140381 0.784302 0.451657 0.784302 1.00744C0.784302 1.31136 0.921213 1.58433 1.13703 1.76865L6.43811 7.03451L1.06757 12.3693C0.892212 12.5501 0.784302 12.7956 0.784302 13.0658C0.784302 13.6216 1.23618 14.0718 1.79596 14.0718C2.06843 14.0718 2.31528 13.9642 2.49737 13.7904L8.56866 7.76124V7.75984C8.75886 7.57692 8.87756 7.32084 8.87756 7.03662V7.03451Z" fill="black"/>
</svg>
