<svg width="9" height="15" viewBox="0 0 9 15" fill="none" xmlns="http://www.w3.org/2000/svg">
<path fill-rule="evenodd" clip-rule="evenodd" d="M0.744391 7.03451V7.0324C0.744391 6.74817 0.863091 6.49209 1.05463 6.30918H1.05328L7.12323 0.278591L7.12592 0.281405C7.30802 0.106932 7.55487 0.00140381 7.82599 0.00140381C8.38577 0.00140381 8.83765 0.451657 8.83765 1.00744C8.83765 1.31136 8.70074 1.58433 8.48492 1.76865L3.18383 7.03451L8.55438 12.3693C8.72974 12.5501 8.83765 12.7956 8.83765 13.0658C8.83765 13.6216 8.38577 14.0718 7.82599 14.0718C7.55352 14.0718 7.30667 13.9642 7.12457 13.7904L1.05328 7.76124V7.75984C0.863092 7.57692 0.744391 7.32084 0.744391 7.03662V7.03451Z" fill="black"/>
</svg>
