<svg width="425" height="367" viewBox="0 0 425 367" fill="none" xmlns="http://www.w3.org/2000/svg">
<g opacity="0.45">
<path opacity="0.5" d="M160.081 53.5214C154.762 46.9543 143.767 54.0768 148.739 60.8732C150.069 62.6478 151.465 64.374 152.808 66.0158C169.189 86.0914 177.672 110.464 184.984 134.548C186.766 140.463 188.508 146.777 186.46 152.656C189.385 136.962 187.484 120.846 183.07 105.479C178.655 90.1113 171.781 75.4319 164.681 60.9336C163.443 58.3213 161.9 55.8365 160.081 53.5214Z" fill="#E1A2F7" fill-opacity="0.62"/>
<path d="M53.8058 95.737C42.7569 95.4352 41.3607 110.646 52.3565 111.43C55.2418 111.636 58.1536 111.696 60.9192 111.768C94.7442 112.601 126.735 123.744 157.462 135.719C165.014 138.653 172.925 141.948 177.406 148.238C163.551 133.655 145.309 122.971 125.897 115.112C106.485 107.254 85.8226 102.111 65.1606 97.2943C61.4496 96.4005 57.642 95.8783 53.8058 95.737Z" fill="#E1A2F7" fill-opacity="0.62"/>
<path opacity="0.2" d="M56.8903 133.123C49.9232 133.365 51.4921 142.358 58.5124 142.419C60.3473 142.419 62.1821 142.358 63.9372 142.286C85.2109 141.501 107.123 146.849 128.317 152.728C133.515 154.165 139.02 155.806 142.796 159.343C131.76 151.291 118.597 145.69 105.168 141.803C91.7393 137.916 77.9513 135.671 64.2165 133.63C61.7986 133.244 59.3448 133.075 56.8903 133.123Z" fill="#E1A2F7" fill-opacity="0.62"/>
<path opacity="0.5" d="M199.65 300.452C201.631 306.488 210.832 302.866 209.157 296.721C208.718 295.104 208.173 293.51 207.667 291.989C201.538 273.411 201.83 252.876 202.841 232.777C203.08 227.839 203.466 222.6 206.298 218.399C200.448 230.109 197.735 243.062 196.924 255.822C196.113 268.582 197.137 281.282 198.36 293.86C198.549 296.091 198.981 298.299 199.65 300.452Z" fill="#E1A2F7" fill-opacity="0.62"/>
<path opacity="0.2" d="M69.6014 45.0832C65.3998 44.4193 65.0807 49.9723 69.269 50.8173C70.3725 51.0346 71.4761 51.2036 72.5265 51.3726C85.3838 53.3645 97.6826 59.0745 109.516 65.0259C112.428 66.4866 115.473 68.1042 117.241 70.6514C111.625 64.6391 104.837 59.6179 97.2173 55.8392C89.7203 52.1036 81.9298 48.8757 73.9093 46.1817C72.5183 45.6833 71.0748 45.3152 69.6014 45.0832Z" fill="#E1A2F7" fill-opacity="0.62"/>
<path d="M4.76994 192.264C-5.86688 197.249 3.12123 210.915 14.0772 206.376C16.9358 205.168 19.7413 203.865 22.4005 202.597C54.9624 187.266 92.7896 181.628 129.979 177.246C139.113 176.184 148.846 175.254 157.289 178.538C134.273 172.635 109.769 172.152 86.0751 174.651C62.3816 177.15 39.3396 182.546 16.5237 188.232C12.4662 189.213 8.52825 190.564 4.76994 192.264Z" fill="#E1A2F7" fill-opacity="0.62"/>
<path opacity="0.5" d="M35.1912 245.464C27.5327 251.947 39.4859 259.613 47.5167 253.383C49.6175 251.754 51.6251 250.027 53.5397 248.398C76.8743 228.515 107.708 214.355 138.408 201.317C145.947 198.118 176.967 194.847 185.237 195.028C163.618 196.778 119.435 202.911 99.7967 211.023C80.1585 219.135 61.9694 229.191 44.0597 239.416C40.9031 241.178 37.9342 243.203 35.1912 245.464Z" fill="#E1A2F7" fill-opacity="0.62"/>
<path d="M89.8246 330.39C87.5908 339.661 102.216 339.794 104.929 330.523C105.633 328.109 106.258 325.694 106.75 323.28C113.505 294.923 130.005 267.399 147.104 240.841C151.292 234.322 174.773 215.623 181.673 211.494C164.973 224.109 132.478 251.959 121.389 268.763C110.3 285.567 101.671 303.168 93.3347 320.817C91.8459 323.904 90.671 327.109 89.8246 330.39Z" fill="#E1A2F7" fill-opacity="0.62"/>
<path d="M199.769 4.3769C194.557 -5.2806 179.653 2.66269 184.386 12.5616C185.623 15.1571 187.045 17.6922 188.375 20.1065C204.436 49.5981 209.954 83.7132 214.076 117.237C215.1 125.47 215.951 134.234 212.281 141.803C219.009 121.16 219.9 99.1049 217.599 77.8222C215.299 56.5394 209.781 35.6551 203.984 15.0484C202.978 11.3718 201.566 7.79652 199.769 4.3769Z" fill="#E1A2F7" fill-opacity="0.62"/>
<path d="M116.696 20.8068C116.971 20.9521 117.282 21.0349 117.6 21.0482C118.172 21.0482 118.584 20.517 118.823 20.0342C120.153 17.4749 119.382 14.1431 121.376 11.9702C123.414 14.1955 125.056 16.6964 126.242 19.3823L133.901 17.2335C134.26 18.5799 134.317 19.9783 134.068 21.3451C133.819 22.712 133.27 24.0193 132.452 25.1888C133.794 25.7205 135.015 26.4736 136.055 27.4101C136.57 27.8853 136.931 28.4806 137.098 29.1303C137.265 29.78 137.23 30.4589 136.999 31.092C135.229 31.4817 133.407 31.6443 131.587 31.5749C131.877 34.6262 131.684 37.6994 131.016 40.7012C131.003 40.932 130.939 41.1581 130.827 41.3657C130.715 41.5732 130.557 41.7579 130.364 41.9084C130.052 42.0202 129.713 42.0523 129.382 42.0013C129.052 41.9502 128.743 41.8179 128.489 41.6187C125.848 40.1408 123.679 38.0595 122.2 35.5827L119.355 41.6549C119.144 42.3045 118.669 42.8569 118.025 43.2001C117.595 43.3395 117.126 43.3426 116.694 43.2088C116.262 43.0751 115.892 42.8125 115.645 42.4637C115.176 41.7493 114.885 40.9497 114.795 40.1218L113.731 34.2428C113.716 33.9389 113.595 33.6472 113.385 33.4098C113.062 33.2323 112.682 33.16 112.308 33.2046C109.649 33.1321 106.95 33.108 104.211 33.1321C103.745 31.8284 105.181 30.6091 106.551 30.0659C107.92 29.5226 109.582 29.1001 110.274 27.8809C111.683 25.4061 108.027 21.9536 109.582 19.8048C111.391 17.2697 114.342 19.7444 116.696 20.8068Z" fill="#E1A2F7" fill-opacity="0.62"/>
<path opacity="0.5" d="M264.388 53.5214C269.706 46.9543 280.715 54.0768 275.743 60.8732C274.413 62.6478 273.084 64.374 271.674 66.0158C255.294 86.0914 246.811 110.464 239.498 134.548C237.716 140.463 235.974 146.777 238.022 152.656C235.097 136.962 236.998 120.846 241.412 105.479C245.827 90.1113 252.701 75.4319 259.801 60.9336C261.04 58.324 262.578 55.8397 264.388 53.5214Z" fill="#E1A2F7" fill-opacity="0.62"/>
<path d="M370.637 95.737C381.686 95.4352 383.082 110.646 372.086 111.43C369.201 111.636 366.289 111.696 363.523 111.768C329.698 112.601 297.708 123.744 266.981 135.719C259.429 138.653 251.518 141.948 247.037 148.238C260.891 133.655 279.133 122.971 298.546 115.112C317.958 107.254 338.607 102.111 359.282 97.2943C362.993 96.4005 366.801 95.8783 370.637 95.737Z" fill="#E1A2F7" fill-opacity="0.62"/>
<path opacity="0.5" d="M367.592 133.123C374.559 133.365 372.99 142.358 365.97 142.419C364.135 142.419 362.3 142.358 360.545 142.286C339.205 141.501 317.359 146.849 296.166 152.728C290.967 154.165 285.529 155.806 281.686 159.343C292.722 151.291 305.872 145.69 319.314 141.803C332.756 137.916 346.531 135.671 360.266 133.63C362.684 133.244 365.138 133.074 367.592 133.123Z" fill="#E1A2F7" fill-opacity="0.62"/>
<path opacity="0.2" d="M354.881 45.0832C359.083 44.4193 359.402 49.9723 355.214 50.8173C354.11 51.0346 353.007 51.2036 351.956 51.3726C339.099 53.3645 326.8 59.0745 314.967 65.0259C312.055 66.4866 309.01 68.1042 307.242 70.6514C312.857 64.6391 319.645 59.6179 327.265 55.8392C334.762 52.1036 342.553 48.8757 350.573 46.1817C351.964 45.6833 353.408 45.3152 354.881 45.0832Z" fill="#E1A2F7" fill-opacity="0.62"/>
<path opacity="0.2" d="M245.561 311.98C244.617 315.747 238.847 313.876 239.605 310.037C239.804 309.035 240.057 308.045 240.296 307.103C243.234 295.562 242.171 283.056 240.682 270.888C240.309 267.882 239.857 264.707 237.943 262.244C241.877 269.259 244.361 276.869 245.269 284.698C246.149 292.412 246.407 300.175 246.04 307.924C246.027 309.287 245.866 310.646 245.561 311.98Z" fill="#E1A2F7" fill-opacity="0.62"/>
<path opacity="0.5" d="M352.182 286.883C355.466 291.929 347.409 291.591 343.872 286.533C342.941 285.217 342.09 283.889 341.279 282.622C331.281 267.194 316.017 251.935 300.78 237.195C297.03 233.574 292.961 229.771 288.228 227.357C300.196 234.754 311.232 243.324 321.136 252.913C330.961 262.244 339.644 271.962 348.14 281.668C349.615 283.321 350.966 285.064 352.182 286.883Z" fill="#E1A2F7" fill-opacity="0.62"/>
<path opacity="0.2" d="M60.4538 286.883C57.1696 291.929 65.2271 291.591 68.7771 286.533C69.6945 285.217 70.5455 283.889 71.3699 282.622C81.3552 267.194 96.5526 251.935 111.87 237.195C115.619 233.574 119.688 229.771 124.421 227.357C112.439 234.751 101.39 243.322 91.4735 252.913C81.6477 262.244 72.9654 271.962 64.4692 281.668C63.0033 283.322 61.6617 285.065 60.4538 286.883Z" fill="#E1A2F7" fill-opacity="0.62"/>
<path opacity="0.2" d="M167.115 311.98C168.059 315.747 173.763 313.876 173.071 310.037C172.872 309.035 172.619 308.045 172.38 307.103C169.442 295.562 170.505 283.056 171.994 270.888C172.367 267.882 172.819 264.707 174.734 262.244C170.789 269.269 168.301 276.892 167.394 284.734C166.513 292.449 166.256 300.211 166.623 307.96C166.643 309.312 166.808 310.658 167.115 311.98Z" fill="#E1A2F7" fill-opacity="0.62"/>
<path opacity="0.2" d="M321.269 82.9767C325.457 82.3128 325.776 87.8779 321.588 88.7109C320.498 88.9402 319.394 89.0971 318.344 89.2662C305.487 91.258 293.188 96.968 281.341 102.919C278.443 104.392 275.384 105.998 273.629 108.545C279.227 102.545 285.986 97.5249 293.573 93.7327C301.08 90.007 308.874 86.7794 316.895 84.0753C318.311 83.5841 319.776 83.2163 321.269 82.9767Z" fill="#E1A2F7" fill-opacity="0.62"/>
<path opacity="0.2" d="M282.045 8.5779C285.675 6.53775 288.255 11.5838 284.705 13.7809C283.774 14.3603 282.817 14.8915 281.912 15.3985C270.81 21.6034 261.756 31.092 253.22 40.6167C251.132 42.9586 248.965 45.4454 248.38 48.4513C251.111 40.9744 255.334 34.0178 260.838 27.9291C266.272 21.9386 272.177 16.3144 278.509 11.1009C279.597 10.1598 280.781 9.31493 282.045 8.5779Z" fill="#E1A2F7" fill-opacity="0.62"/>
<path d="M419.712 192.264C430.349 197.249 421.361 210.915 410.405 206.376C407.533 205.168 404.741 203.865 402.069 202.597C369.52 187.266 331.693 181.628 294.491 177.246C285.37 176.184 275.637 175.254 267.194 178.538C290.209 172.635 314.714 172.152 338.407 174.651C362.101 177.15 385.143 182.546 407.959 188.232C412.016 189.213 415.954 190.564 419.712 192.264Z" fill="#E1A2F7" fill-opacity="0.62"/>
<path opacity="0.5" d="M389.278 245.464C396.936 251.947 384.983 259.613 376.952 253.383C374.838 251.754 372.844 250.027 370.929 248.398C347.595 228.515 316.761 214.355 286.061 201.317C278.522 198.118 247.502 194.847 239.219 195.028C260.852 196.778 305.034 202.911 324.672 211.023C344.311 219.135 362.5 229.191 380.396 239.416C383.559 241.175 386.533 243.2 389.278 245.464Z" fill="#E1A2F7" fill-opacity="0.62"/>
<path d="M299.064 341.037C300.008 350.502 285.462 348.969 284.053 339.468C283.694 336.981 283.468 334.494 283.242 332.116C280.463 303.144 267.885 273.942 254.589 245.633C251.331 238.692 230.656 217.47 224.314 212.581C239.139 226.994 267.553 258.321 276.168 276.248C284.784 294.174 291.007 312.693 296.844 331.15C297.918 334.377 298.661 337.687 299.064 341.037Z" fill="#E1A2F7" fill-opacity="0.62"/>
<path d="M307.76 20.8068C307.484 20.9521 307.174 21.0349 306.856 21.0482C306.284 21.0482 305.872 20.517 305.633 20.0342C304.303 17.4749 305.074 14.1431 303.08 11.9702C301.042 14.1955 299.4 16.6964 298.213 19.3823L290.555 17.2335C290.195 18.5799 290.138 19.9783 290.387 21.3451C290.636 22.712 291.186 24.0193 292.004 25.1888C290.662 25.7205 289.44 26.4736 288.401 27.4101C287.885 27.8853 287.524 28.4806 287.357 29.1303C287.191 29.78 287.225 30.4589 287.457 31.092C289.227 31.4817 291.048 31.6443 292.868 31.5749C292.579 34.6262 292.771 37.6994 293.44 40.7012C293.453 40.932 293.517 41.1581 293.629 41.3657C293.741 41.5732 293.898 41.7579 294.091 41.9084C294.403 42.0202 294.743 42.0523 295.073 42.0013C295.404 41.9502 295.713 41.8179 295.966 41.6187C298.608 40.1408 300.777 38.0595 302.255 35.5827L305.101 41.6549C305.312 42.3045 305.787 42.8569 306.43 43.2001C306.86 43.3395 307.33 43.3426 307.762 43.2088C308.194 43.0751 308.564 42.8125 308.81 42.4637C309.282 41.751 309.569 40.9501 309.648 40.1218L310.712 34.2428C310.738 33.939 310.863 33.6492 311.071 33.4098C311.396 33.1916 311.798 33.0886 312.201 33.1201C314.86 33.0476 317.559 33.0235 320.298 33.0476C320.764 31.7439 319.328 30.5246 317.958 29.9814C316.589 29.4381 314.927 29.0156 314.235 27.7964C312.826 25.3216 316.469 21.8691 314.927 19.7203C313.079 17.2697 310.14 19.7444 307.76 20.8068Z" fill="#E1A2F7" fill-opacity="0.62"/>
<path opacity="0.2" d="M330.869 306.91C330.598 307.066 330.285 307.15 329.964 307.152C329.393 307.152 328.981 306.633 328.741 306.15C327.412 303.578 328.183 300.246 326.188 298.086C324.149 300.305 322.506 302.802 321.322 305.486L313.664 303.337C313.305 304.685 313.248 306.086 313.497 307.454C313.746 308.823 314.295 310.132 315.113 311.304C313.768 311.832 312.546 312.585 311.51 313.526C311.006 313.995 310.653 314.58 310.486 315.218C310.32 315.856 310.347 316.522 310.566 317.147C312.335 317.541 314.157 317.707 315.977 317.642C315.688 320.693 315.881 323.767 316.549 326.768C316.533 327.041 316.613 327.311 316.776 327.54C316.94 327.769 317.179 327.945 317.459 328.043C317.74 328.14 318.047 328.155 318.338 328.085C318.628 328.014 318.886 327.862 319.075 327.65C321.717 326.172 323.885 324.091 325.364 321.614L328.209 327.782C328.424 328.43 328.898 328.982 329.539 329.328C329.971 329.464 330.44 329.464 330.872 329.328C331.304 329.192 331.672 328.929 331.919 328.579C332.392 327.867 332.679 327.066 332.757 326.237L333.82 320.358C333.846 320.058 333.971 319.772 334.179 319.537C334.5 319.311 334.904 319.203 335.309 319.236C337.968 319.179 340.668 319.155 343.406 319.163C343.872 317.859 342.436 316.652 341.066 316.097C339.697 315.542 338.035 315.143 337.344 313.924C335.934 311.437 339.577 307.985 338.035 305.848C336.174 303.373 333.222 305.848 330.869 306.91Z" fill="#E1A2F7" fill-opacity="0.62"/>
<path d="M395.713 115.136C395.437 115.28 395.127 115.363 394.809 115.378C394.224 115.378 393.825 114.846 393.586 114.364C392.256 111.792 393.027 108.46 391.02 106.3C388.982 108.525 387.34 111.026 386.153 113.712L378.508 111.551C378.148 112.899 378.091 114.3 378.34 115.668C378.589 117.037 379.139 118.347 379.957 119.518C378.613 120.047 377.391 120.8 376.354 121.74C375.839 122.215 375.478 122.81 375.311 123.46C375.144 124.109 375.179 124.788 375.41 125.421C377.18 125.811 379.002 125.974 380.822 125.904C380.533 128.956 380.725 132.029 381.393 135.031C381.402 135.262 381.464 135.49 381.577 135.698C381.689 135.906 381.849 136.09 382.045 136.238C382.603 136.564 383.375 136.238 383.92 135.96C386.561 134.482 388.73 132.401 390.209 129.924L393.054 136.093C393.256 136.73 393.704 137.279 394.317 137.638C394.751 137.775 395.222 137.776 395.657 137.64C396.091 137.504 396.462 137.24 396.711 136.89C397.186 136.179 397.472 135.377 397.548 134.548L398.612 128.681C398.632 128.376 398.757 128.084 398.971 127.848C399.294 127.624 399.696 127.517 400.101 127.546C402.76 127.49 405.459 127.466 408.198 127.474C408.664 126.17 407.228 124.963 405.845 124.419C404.462 123.876 402.827 123.454 402.135 122.234C400.726 119.748 404.369 116.295 402.827 114.158C401.018 111.587 398.067 114.086 395.713 115.136Z" fill="#E1A2F7" fill-opacity="0.62"/>
<path d="M136.467 335.605C136.091 335.815 135.66 335.932 135.218 335.943C134.407 335.943 133.888 335.207 133.502 334.543C131.694 330.921 132.731 326.322 129.939 323.304C127.101 326.403 124.813 329.885 123.158 333.625L112.521 330.631C112.019 332.507 111.939 334.455 112.286 336.36C112.633 338.264 113.401 340.085 114.542 341.713C112.667 342.452 110.962 343.504 109.517 344.816C108.794 345.476 108.288 346.305 108.053 347.211C107.818 348.116 107.865 349.063 108.187 349.946C110.648 350.49 113.181 350.718 115.712 350.623C115.319 354.877 115.587 359.16 116.51 363.346C116.572 363.973 116.901 364.554 117.428 364.964C118.212 365.411 119.236 364.964 120.087 364.566C123.774 362.492 126.799 359.579 128.862 356.115L132.851 364.71C133.129 365.6 133.759 366.365 134.619 366.859C135.222 367.047 135.876 367.047 136.478 366.859C137.08 366.671 137.596 366.306 137.943 365.821C138.606 364.831 139.006 363.716 139.113 362.562L140.603 354.377C140.61 353.935 140.783 353.509 141.094 353.17C141.541 352.857 142.102 352.71 142.663 352.759C146.431 352.663 150.193 352.626 153.952 352.651C154.603 350.84 152.622 349.15 150.681 348.389C148.74 347.629 146.466 347.037 145.509 345.347C143.541 341.882 148.62 337.078 146.466 334.096C143.86 330.68 139.752 334.132 136.467 335.605Z" fill="#E1A2F7" fill-opacity="0.62"/>
<path d="M28.61 120.858C28.2282 121.068 27.793 121.185 27.3468 121.196C26.5491 121.196 26.0173 120.46 25.645 119.784C23.8234 116.162 24.8738 111.563 22.0816 108.545C19.2201 111.656 16.914 115.155 15.2474 118.915L4.6106 115.921C4.10879 117.798 4.02791 119.747 4.37282 121.653C4.71773 123.559 5.4814 125.383 6.61832 127.015C4.74896 127.756 3.04881 128.809 1.60567 130.118C0.887205 130.777 0.382984 131.604 0.148415 132.507C-0.0861544 133.41 -0.0419913 134.354 0.276068 135.236C2.74241 135.778 5.2791 136.01 7.81491 135.924C7.4149 140.174 7.68356 144.454 8.61272 148.636C8.63831 148.947 8.73274 149.251 8.89035 149.529C9.04796 149.807 9.26554 150.053 9.53016 150.253C10.3146 150.712 11.3384 150.253 12.1229 149.867C15.8149 147.799 18.8415 144.885 20.8983 141.417L24.8871 150.012C25.1677 150.9 25.7906 151.667 26.6422 152.173C27.2459 152.359 27.901 152.358 28.5033 152.167C29.1057 151.977 29.6206 151.609 29.9662 151.123C30.6307 150.133 31.0357 149.018 31.1496 147.863L32.6254 139.678C32.6513 139.24 32.8229 138.819 33.1174 138.471C33.5692 138.159 34.1341 138.012 34.6996 138.061C38.4668 137.964 42.2296 137.932 45.9879 137.964C46.6261 136.141 44.6584 134.451 42.7038 133.691C40.7493 132.93 38.5023 132.351 37.5317 130.649C35.5771 127.196 40.6562 122.379 38.4889 119.398C36.0026 115.921 31.8941 119.374 28.61 120.858Z" fill="#E1A2F7" fill-opacity="0.62"/>
<path opacity="0.2" d="M355.905 253.842C355.701 253.957 355.467 254.02 355.227 254.023C354.801 254.023 354.509 253.637 354.323 253.275C353.365 251.38 353.911 248.917 352.435 247.311C350.929 248.958 349.713 250.807 348.832 252.792L343.167 251.199C342.901 252.195 342.858 253.23 343.041 254.242C343.223 255.254 343.628 256.223 344.231 257.09C343.24 257.487 342.338 258.048 341.572 258.744C341.191 259.094 340.924 259.533 340.802 260.013C340.68 260.492 340.707 260.993 340.881 261.46C342.185 261.749 343.528 261.871 344.869 261.822C344.665 264.082 344.808 266.358 345.295 268.582C345.33 268.915 345.507 269.222 345.787 269.439C346.199 269.681 346.744 269.439 347.116 269.234C349.076 268.135 350.681 266.586 351.77 264.743L353.884 269.307C354.026 269.781 354.358 270.19 354.815 270.453C355.135 270.554 355.484 270.554 355.805 270.453C356.125 270.352 356.399 270.157 356.583 269.898C356.938 269.375 357.152 268.784 357.208 268.172L357.992 263.814C358.01 263.593 358.103 263.382 358.258 263.21C358.496 263.041 358.796 262.963 359.096 262.993C361.09 262.933 363.085 262.92 365.092 262.933C365.438 261.967 364.374 261.073 363.351 260.663C362.327 260.253 361.117 259.951 360.598 259.057C359.561 257.21 362.26 254.663 361.117 253.021C359.827 251.223 357.647 253.058 355.905 253.842Z" fill="#E1A2F7" fill-opacity="0.62"/>
<path opacity="0.2" d="M209.37 330.655C209.17 330.768 208.94 330.831 208.705 330.837C208.266 330.837 207.974 330.438 207.787 330.088C206.83 328.181 207.389 325.718 205.899 324.113C204.393 325.759 203.178 327.608 202.296 329.593L196.632 328C196.365 328.999 196.323 330.037 196.508 331.051C196.693 332.065 197.101 333.035 197.709 333.903C196.717 334.294 195.815 334.851 195.05 335.545C194.67 335.895 194.404 336.335 194.282 336.814C194.16 337.293 194.187 337.794 194.358 338.261C195.663 338.549 197.005 338.671 198.347 338.623C198.136 340.883 198.279 343.159 198.773 345.383C198.784 345.548 198.832 345.709 198.914 345.857C198.996 346.004 199.111 346.135 199.251 346.24C199.664 346.482 200.209 346.24 200.581 346.035C202.544 344.936 204.153 343.387 205.248 341.544L207.349 346.12C207.5 346.59 207.836 346.994 208.293 347.254C208.61 347.357 208.956 347.36 209.275 347.261C209.594 347.162 209.866 346.968 210.048 346.711C210.401 346.183 210.615 345.588 210.673 344.973L211.471 340.627C211.484 340.403 211.572 340.188 211.723 340.011C211.961 339.842 212.261 339.764 212.561 339.794C214.555 339.794 216.55 339.721 218.557 339.734C218.903 338.768 217.839 337.874 216.816 337.464C215.792 337.054 214.582 336.752 214.077 335.858C213.026 334.011 215.725 331.464 214.582 329.883C213.359 328.036 211.125 329.859 209.37 330.655Z" fill="#E1A2F7" fill-opacity="0.62"/>
<path opacity="0.5" d="M67.5804 61.8269C67.3804 61.9396 67.151 62.0021 66.9156 62.0079C66.4901 62.0079 66.1843 61.6096 66.0115 61.2595C65.0409 59.3642 65.5993 56.8895 64.1101 55.2839C62.6038 56.9349 61.3882 58.7877 60.5069 60.7766L54.8428 59.1831C54.576 60.1803 54.5338 61.2162 54.7189 62.2285C54.904 63.2408 55.3125 64.2088 55.9198 65.0742C54.9279 65.4654 54.0258 66.0223 53.2606 66.716C52.8834 67.0709 52.6197 67.5124 52.4979 67.993C52.3761 68.4736 52.4007 68.9753 52.5692 69.4442C53.8738 69.7324 55.2163 69.8543 56.558 69.8064C56.3463 72.0627 56.4896 74.3349 56.9835 76.5546C56.9926 76.7217 57.0398 76.8852 57.1222 77.0348C57.2046 77.1845 57.3203 77.3169 57.4621 77.4238C57.6849 77.4987 57.9257 77.5181 58.1595 77.4799C58.3934 77.4416 58.6117 77.3472 58.7917 77.2065C60.7512 76.109 62.3602 74.5649 63.4587 72.7278L65.5595 77.2909C65.6953 77.787 66.0324 78.2181 66.5034 78.4981C66.8243 78.5964 67.1721 78.5952 67.4921 78.4947C67.8122 78.3942 68.0864 78.2001 68.2718 77.9428C68.6174 77.4117 68.8307 76.8184 68.8967 76.2045L69.761 71.8345C69.7787 71.6095 69.8715 71.3947 70.0269 71.2188C70.2684 71.0575 70.5657 70.9804 70.8646 71.0015C72.859 71.0015 74.8534 71.0015 76.8478 71.0015C77.1935 70.0358 76.1298 69.1424 75.1193 68.732C74.1088 68.3215 72.8723 68.0198 72.367 67.1144C71.3167 65.2794 74.0158 62.7202 72.8723 61.1388C71.5028 59.2073 69.3355 61.0422 67.5804 61.8269Z" fill="#E1A2F7" fill-opacity="0.62"/>
<path opacity="0.5" d="M143.049 213.317C142.849 213.43 142.619 213.492 142.384 213.498C141.958 213.498 141.653 213.1 141.48 212.75C140.509 210.842 141.068 208.38 139.578 206.714C138.069 208.36 136.857 210.214 135.988 212.206L130.311 210.661C130.047 211.659 130.007 212.694 130.192 213.706C130.377 214.718 130.784 215.686 131.388 216.552C130.398 216.946 129.496 217.503 128.729 218.194C128.352 218.549 128.088 218.99 127.966 219.471C127.844 219.952 127.869 220.453 128.038 220.922C129.342 221.21 130.685 221.332 132.026 221.284C131.815 223.541 131.958 225.813 132.452 228.033C132.441 228.233 132.5 228.431 132.62 228.6C132.741 228.768 132.917 228.897 133.123 228.97C133.329 229.042 133.555 229.053 133.769 229.002C133.983 228.951 134.173 228.84 134.313 228.684C136.273 227.587 137.882 226.043 138.98 224.206L141.081 228.769C141.24 229.239 141.574 229.644 142.025 229.916C142.346 230.014 142.693 230.013 143.014 229.912C143.334 229.812 143.608 229.618 143.793 229.36C144.15 228.834 144.365 228.238 144.418 227.622L145.203 223.276C145.22 223.051 145.313 222.836 145.469 222.661C145.708 222.496 146.007 222.419 146.306 222.443C148.301 222.443 150.295 222.371 152.303 222.443C152.635 221.478 151.585 220.584 150.561 220.174C149.537 219.763 148.327 219.462 147.809 218.556C146.772 216.721 149.457 214.162 148.314 212.581C146.984 210.661 144.804 212.532 143.049 213.317Z" fill="#E1A2F7" fill-opacity="0.62"/>
<path opacity="0.5" d="M88.2825 154.261C88.0824 154.374 87.853 154.437 87.6177 154.442C87.1789 154.442 86.8864 154.044 86.7002 153.694C85.7429 151.787 86.3014 149.324 84.8122 147.718C83.3025 149.367 82.0866 151.221 81.209 153.211L75.5448 151.618C75.2791 152.614 75.2364 153.649 75.4191 154.661C75.6018 155.673 76.0063 156.641 76.6086 157.509C75.6177 157.902 74.716 158.458 73.9493 159.151C73.5683 159.503 73.3021 159.945 73.1801 160.426C73.0581 160.908 73.085 161.41 73.2579 161.879C74.5626 162.167 75.9051 162.289 77.2467 162.241C77.0356 164.497 77.1789 166.769 77.6722 168.989C77.6517 169.193 77.705 169.398 77.824 169.572C77.943 169.746 78.1213 169.88 78.3318 169.953C78.5422 170.027 78.7735 170.036 78.9904 169.98C79.2073 169.924 79.398 169.805 79.5336 169.641C81.4922 168.546 83.0976 167.001 84.1873 165.162L86.3014 169.725C86.442 170.22 86.7781 170.649 87.2454 170.933C87.5644 171.03 87.9099 171.028 88.2277 170.928C88.5455 170.827 88.8173 170.634 89.0004 170.377C89.3576 169.851 89.5718 169.255 89.6254 168.639L90.4231 164.293C90.4362 164.069 90.5243 163.854 90.6758 163.677C90.9161 163.514 91.2143 163.437 91.5134 163.46C93.5078 163.46 95.5023 163.388 97.51 163.46C97.8557 162.494 96.792 161.601 95.7682 161.191C94.7444 160.78 93.5344 160.478 93.0292 159.573C91.9788 157.738 94.6779 155.179 93.5345 153.597C92.2048 151.642 90.0243 153.477 88.2825 154.261Z" fill="#E1A2F7" fill-opacity="0.62"/>
<path opacity="0.5" d="M323.529 168.168C323.329 168.281 323.099 168.343 322.864 168.349C322.439 168.349 322.146 167.951 321.96 167.601C320.989 165.693 321.548 163.231 320.072 161.625C318.558 163.271 317.342 165.125 316.469 167.118L310.805 165.524C310.539 166.521 310.496 167.556 310.679 168.568C310.862 169.58 311.266 170.548 311.868 171.416C310.878 171.81 309.977 172.366 309.209 173.057C308.833 173.413 308.57 173.854 308.449 174.335C308.327 174.815 308.351 175.316 308.518 175.785C309.824 176.067 311.165 176.189 312.506 176.148C312.296 178.404 312.439 180.676 312.932 182.896C312.917 183.099 312.974 183.302 313.095 183.473C313.216 183.645 313.395 183.777 313.604 183.85C313.814 183.923 314.044 183.933 314.26 183.878C314.477 183.824 314.668 183.708 314.807 183.548C316.762 182.45 318.367 180.906 319.46 179.069L321.574 183.632C321.724 184.103 322.054 184.51 322.505 184.779C322.826 184.877 323.174 184.876 323.494 184.776C323.814 184.675 324.088 184.481 324.273 184.224C324.629 183.697 324.843 183.101 324.898 182.485L325.683 178.14C325.701 177.915 325.793 177.7 325.949 177.524C326.189 177.359 326.487 177.282 326.786 177.307C328.781 177.307 330.775 177.234 332.783 177.246C333.115 176.293 332.065 175.387 331.041 174.989C330.017 174.59 328.807 174.277 328.289 173.371C327.252 171.536 329.951 168.977 328.794 167.396C327.465 165.549 325.284 167.384 323.529 168.168Z" fill="#E1A2F7" fill-opacity="0.62"/>
<path opacity="0.2" d="M209.369 156.543C209.169 156.656 208.94 156.718 208.704 156.724C208.266 156.724 207.973 156.338 207.787 155.975C206.83 154.08 207.388 151.617 205.899 150.012C204.393 151.659 203.177 153.507 202.296 155.493L196.645 153.923C196.377 154.92 196.335 155.956 196.52 156.969C196.705 157.981 197.114 158.949 197.722 159.814C196.729 160.21 195.827 160.771 195.063 161.468C194.681 161.818 194.415 162.258 194.293 162.737C194.171 163.217 194.198 163.718 194.371 164.184C195.676 164.473 197.018 164.594 198.36 164.546C198.149 166.807 198.292 169.083 198.786 171.307C198.796 171.472 198.845 171.633 198.927 171.78C199.009 171.928 199.124 172.058 199.264 172.164C199.676 172.405 200.222 172.164 200.594 171.959C202.599 170.863 204.25 169.305 205.38 167.444L207.481 172.007C207.632 172.481 207.967 172.888 208.425 173.154C208.744 173.253 209.09 173.253 209.409 173.152C209.727 173.051 209.999 172.856 210.18 172.598C210.506 172.053 210.684 171.444 210.699 170.824L211.497 166.466C211.51 166.246 211.598 166.035 211.749 165.862C211.988 165.696 212.286 165.614 212.587 165.633C214.581 165.633 216.576 165.573 218.583 165.633C218.929 164.667 217.865 163.774 216.842 163.363C215.818 162.953 214.608 162.651 214.103 161.758C213.052 159.911 215.751 157.364 214.608 155.722C213.358 153.923 211.124 155.758 209.369 156.543Z" fill="#E1A2F7" fill-opacity="0.62"/>
<path opacity="0.3" d="M173.563 170.691C173.359 170.806 173.125 170.868 172.885 170.872C172.46 170.872 172.167 170.486 171.981 170.124C171.024 168.228 171.569 165.766 170.093 164.16C168.587 165.807 167.371 167.656 166.49 169.641L160.826 168.047C160.559 169.044 160.516 170.079 160.699 171.091C160.882 172.103 161.286 173.071 161.889 173.938C160.898 174.336 159.996 174.896 159.23 175.592C158.851 175.943 158.584 176.382 158.46 176.861C158.336 177.34 158.358 177.841 158.526 178.309C159.83 178.596 161.173 178.718 162.514 178.671C162.31 180.931 162.453 183.206 162.94 185.431C162.975 185.764 163.152 186.071 163.432 186.288C163.844 186.529 164.389 186.288 164.761 186.083C166.721 184.984 168.326 183.435 169.415 181.592L171.529 186.155C171.671 186.63 172.003 187.039 172.46 187.302C172.78 187.405 173.13 187.406 173.451 187.305C173.772 187.204 174.046 187.007 174.228 186.747C174.583 186.224 174.797 185.633 174.853 185.02L175.637 180.675C175.653 180.449 175.746 180.234 175.903 180.059C176.141 179.89 176.441 179.812 176.741 179.842C178.735 179.781 180.73 179.769 182.737 179.781C183.083 178.816 182.019 177.922 180.996 177.512C179.972 177.101 178.762 176.799 178.243 175.906C177.206 174.059 179.905 171.512 178.762 169.87C177.459 168.071 175.305 169.906 173.563 170.691Z" fill="#E1A2F7" fill-opacity="0.62"/>
<path opacity="0.2" d="M140.23 85.1136C140.03 85.2263 139.801 85.2888 139.565 85.2946C139.14 85.2946 138.847 84.9084 138.661 84.5462C137.691 82.6509 138.249 80.1762 136.773 78.5827C135.262 80.2263 134.046 82.0759 133.17 84.0633L127.506 82.4698C127.24 83.4665 127.198 84.5014 127.38 85.5133C127.563 86.5252 127.967 87.4935 128.57 88.3609C127.577 88.7508 126.675 89.3078 125.91 90.0027C125.531 90.3563 125.265 90.7972 125.141 91.2779C125.017 91.7586 125.039 92.261 125.206 92.7309C126.511 93.0185 127.853 93.1404 129.195 93.0931C128.983 95.3494 129.126 97.6216 129.62 99.8413C129.656 100.177 129.832 100.488 130.112 100.71C130.524 100.952 131.069 100.71 131.442 100.493C133.4 99.3984 135.005 97.8534 136.095 96.0145L138.209 100.578C138.34 101.072 138.673 101.503 139.14 101.785C139.461 101.885 139.809 101.885 140.13 101.784C140.45 101.684 140.724 101.488 140.908 101.23C141.263 100.707 141.477 100.115 141.533 99.5032L142.318 95.1453C142.335 94.9203 142.428 94.7056 142.584 94.5296C142.828 94.3738 143.123 94.2973 143.421 94.3123C145.416 94.3123 147.41 94.3123 149.418 94.3123C149.75 93.3466 148.7 92.4533 147.676 92.0428C146.652 91.6324 145.442 91.3306 144.924 90.4252C143.887 88.5903 146.586 86.0311 145.429 84.4496C144.099 82.4457 141.919 84.2806 140.23 85.1136Z" fill="#E1A2F7" fill-opacity="0.62"/>
<path opacity="0.3" d="M205.939 196.803C205.739 196.915 205.51 196.978 205.274 196.984C205.063 196.944 204.868 196.854 204.709 196.722C204.55 196.591 204.433 196.422 204.37 196.235C203.4 194.34 203.958 191.865 202.469 190.272C200.963 191.919 199.747 193.767 198.866 195.752L193.202 194.159C192.938 195.156 192.897 196.192 193.082 197.204C193.267 198.216 193.674 199.184 194.278 200.05C193.289 200.446 192.388 201.002 191.619 201.692C191.242 202.047 190.978 202.488 190.857 202.969C190.735 203.45 190.759 203.951 190.928 204.42C192.232 204.708 193.575 204.83 194.917 204.782C194.705 207.039 194.848 209.311 195.342 211.53C195.351 211.698 195.399 211.861 195.481 212.011C195.563 212.16 195.679 212.293 195.821 212.4C196.042 212.476 196.283 212.498 196.516 212.461C196.75 212.425 196.969 212.333 197.15 212.194C199.109 211.09 200.717 209.543 201.817 207.704L203.918 212.267C204.069 212.741 204.404 213.148 204.862 213.414C205.183 213.514 205.531 213.514 205.852 213.413C206.173 213.313 206.447 213.117 206.631 212.858C206.974 212.331 207.188 211.742 207.255 211.132L208.04 206.774C208.034 206.648 208.061 206.523 208.117 206.408C208.174 206.293 208.259 206.191 208.365 206.11C208.472 206.03 208.598 205.973 208.733 205.943C208.868 205.914 209.008 205.913 209.144 205.941C211.138 205.941 213.132 205.941 215.127 205.941C215.473 204.975 214.409 204.082 213.398 203.672C212.388 203.261 211.151 202.959 210.646 202.054C209.609 200.219 212.295 197.66 211.151 196.078C209.862 194.183 207.694 196.018 205.939 196.803Z" fill="#E1A2F7" fill-opacity="0.62"/>
</g>
</svg>
