<svg width="114" height="64" viewBox="0 0 114 64" fill="none" xmlns="http://www.w3.org/2000/svg">
<path opacity="0.1" d="M113.942 40.8731C113.95 37.8955 113.267 34.9596 111.95 32.313C110.633 29.6664 108.721 27.3867 106.375 25.6664C106.44 25.0231 106.473 24.3769 106.474 23.7302C106.474 13.5026 98.5847 5.21332 88.851 5.21332C85.8535 5.20904 82.906 6.00975 80.2962 7.53734C73.4071 2.84185 64.4132 0 54.574 0C38.5645 0 24.7934 7.52394 18.6839 18.3147C18.3444 18.2941 18.0029 18.2827 17.6584 18.2827C7.92666 18.2827 0.0349483 26.572 0.0349483 36.7986C0.0279548 40.4108 1.03535 43.9472 2.93435 46.9766C2.93435 56.1778 11.3169 63.6367 21.653 63.6367H96.6412C104.76 63.6367 111.341 57.7808 111.341 50.556C113.048 47.6362 113.948 44.2866 113.942 40.8731Z" fill="#FF7C33"/>
</svg>
